<svg width="62" height="99" viewBox="0 0 62 99" fill="none" xmlns="http://www.w3.org/2000/svg">
<path d="M15.6248 2.22118C15.8137 1.57975 16.2058 1.01666 16.7422 0.616238C17.2787 0.215815 17.9307 -0.000390943 18.6006 5.3068e-07H43.399C43.8899 0.000372426 44.3737 0.117098 44.8106 0.340567C45.2475 0.564036 45.6249 0.887859 45.9118 1.28538C46.1988 1.6829 46.387 2.14274 46.461 2.62706C46.5351 3.11138 46.4928 3.60632 46.3376 4.07113L35.3024 37.1228H58.898C59.4785 37.1224 60.0475 37.2847 60.5401 37.5911C61.0327 37.8976 61.4292 38.336 61.6844 38.8563C61.9396 39.3767 62.0432 39.9581 61.9836 40.5343C61.9239 41.1106 61.7033 41.6585 61.3469 42.1158L17.9497 97.8C17.5051 98.3732 16.873 98.7724 16.1636 98.9279C15.4542 99.0835 14.7126 98.9855 14.0682 98.651C13.4238 98.3166 12.9176 97.767 12.6378 97.0981C12.358 96.4291 12.3225 95.6834 12.5374 94.991L23.7029 58.7778H3.10162C2.61969 58.778 2.14433 58.6662 1.7133 58.451C1.28227 58.2359 0.907435 57.9235 0.618568 57.5385C0.3297 57.1535 0.134756 56.7066 0.049218 56.2333C-0.0363201 55.7599 -0.0100966 55.2732 0.125807 54.8118L15.6248 2.22118Z" fill="white"/>
</svg>
