<svg width="49" height="69" viewBox="0 0 49 69" fill="none" xmlns="http://www.w3.org/2000/svg">
<path fill-rule="evenodd" clip-rule="evenodd" d="M8.20829 1.91666C7.4964 1.38274 6.64989 1.05761 5.76361 0.977692C4.87734 0.897777 3.98632 1.06624 3.19039 1.4642C2.39447 1.86216 1.72509 2.4739 1.25726 3.23087C0.789425 3.98784 0.541626 4.86013 0.541626 5.75V63.25C0.541626 64.1399 0.789425 65.0122 1.25726 65.7691C1.72509 66.5261 2.39447 67.1378 3.19039 67.5358C3.98632 67.9337 4.87734 68.1022 5.76361 68.0223C6.64989 67.9424 7.4964 67.6172 8.20829 67.0833L46.5416 38.3333C47.1367 37.887 47.6197 37.3082 47.9524 36.6429C48.2851 35.9775 48.4583 35.2439 48.4583 34.5C48.4583 33.7561 48.2851 33.0224 47.9524 32.3571C47.6197 31.6918 47.1367 31.113 46.5416 30.6667L8.20829 1.91666Z" fill="white"/>
</svg>
