<svg width="20" height="21" viewBox="0 0 20 21" fill="none" xmlns="http://www.w3.org/2000/svg">
<path d="M10.593 20.258L10.582 20.26L10.511 20.295L10.491 20.299L10.477 20.295L10.406 20.26C10.3953 20.2567 10.3873 20.2583 10.382 20.265L10.378 20.275L10.361 20.703L10.366 20.723L10.376 20.736L10.48 20.81L10.495 20.814L10.507 20.81L10.611 20.736L10.623 20.72L10.627 20.703L10.61 20.276C10.6073 20.2653 10.6017 20.2593 10.593 20.258ZM10.858 20.145L10.845 20.147L10.66 20.24L10.65 20.25L10.647 20.261L10.665 20.691L10.67 20.703L10.678 20.71L10.879 20.803C10.8917 20.8063 10.9013 20.8037 10.908 20.795L10.912 20.781L10.878 20.167C10.8747 20.155 10.868 20.1477 10.858 20.145ZM10.143 20.147C10.1386 20.1443 10.1333 20.1435 10.1283 20.1446C10.1233 20.1457 10.1189 20.1487 10.116 20.153L10.11 20.167L10.076 20.781C10.0767 20.793 10.0823 20.801 10.093 20.805L10.108 20.803L10.309 20.71L10.319 20.702L10.323 20.691L10.34 20.261L10.337 20.249L10.327 20.239L10.143 20.147Z" fill="white"/>
<path d="M11.26 0.299994C11.4165 0.188036 11.5997 0.119093 11.7911 0.10005C11.9826 0.0810072 12.1758 0.11253 12.3512 0.191472C12.5267 0.270414 12.6785 0.394012 12.7912 0.549925C12.904 0.705838 12.9739 0.888611 12.994 1.07999L13 1.19399V16.806C13.0001 16.9984 12.9496 17.1875 12.8538 17.3544C12.7579 17.5212 12.6199 17.66 12.4536 17.7569C12.2874 17.8537 12.0986 17.9053 11.9061 17.9063C11.7137 17.9074 11.5244 17.858 11.357 17.763L11.261 17.701L4.68 13H2C1.49542 13.0002 1.00943 12.8096 0.639452 12.4665C0.269471 12.1234 0.0428434 11.6531 0.00500021 11.15L1.00268e-07 11V6.99999C-0.000159579 6.49542 0.190406 6.00943 0.533497 5.63945C0.876587 5.26946 1.34684 5.04284 1.85 5.00499L2 4.99999H4.68L11.26 0.299994ZM17.667 3.78299C18.401 4.43955 18.9881 5.24359 19.3901 6.14257C19.7922 7.04154 20 8.01522 20 8.99999C20 9.98476 19.7922 10.9584 19.3901 11.8574C18.9881 12.7564 18.401 13.5604 17.667 14.217C17.5694 14.306 17.4551 14.3748 17.3308 14.4194C17.2064 14.464 17.0745 14.4836 16.9426 14.4769C16.8106 14.4702 16.6813 14.4375 16.5621 14.3805C16.4429 14.3236 16.3362 14.2436 16.2481 14.1452C16.1599 14.0468 16.0922 13.9319 16.0487 13.8071C16.0053 13.6824 15.987 13.5503 15.9949 13.4184C16.0028 13.2865 16.0367 13.1575 16.0948 13.0389C16.1528 12.9202 16.2338 12.8142 16.333 12.727C16.8574 12.258 17.277 11.6836 17.5642 11.0414C17.8515 10.3992 18 9.70354 18 8.99999C18 7.51999 17.358 6.18999 16.333 5.27299C16.2338 5.18579 16.1528 5.0798 16.0948 4.96113C16.0367 4.84245 16.0028 4.71346 15.9949 4.58159C15.987 4.44973 16.0053 4.3176 16.0487 4.19285C16.0922 4.0681 16.1599 3.9532 16.2481 3.85478C16.3362 3.75636 16.4429 3.67637 16.5621 3.61944C16.6813 3.56251 16.8106 3.52976 16.9426 3.52309C17.0745 3.51641 17.2064 3.53594 17.3308 3.58055C17.4551 3.62516 17.5694 3.69397 17.667 3.78299ZM15.667 6.01899C16.0862 6.39406 16.4217 6.85333 16.6513 7.36682C16.881 7.88031 16.9998 8.43647 17 8.99899C17.0001 9.56185 16.8815 10.1184 16.6518 10.6323C16.4221 11.1461 16.0865 11.6057 15.667 11.981C15.4774 12.1494 15.2308 12.2395 14.9773 12.233C14.7237 12.2265 14.4821 12.1238 14.3014 11.9459C14.1206 11.768 14.0143 11.528 14.0038 11.2746C13.9933 11.0212 14.0796 10.7732 14.245 10.581L14.333 10.491C14.743 10.123 15 9.59199 15 8.99999C15.0002 8.4881 14.804 7.99563 14.452 7.62399L14.333 7.50899C14.2338 7.42179 14.1528 7.3158 14.0948 7.19713C14.0367 7.07845 14.0028 6.94946 13.9949 6.81759C13.987 6.68573 14.0053 6.5536 14.0487 6.42885C14.0922 6.3041 14.1599 6.1892 14.2481 6.09078C14.3362 5.99236 14.4429 5.91237 14.5621 5.85544C14.6813 5.79851 14.8106 5.76576 14.9426 5.75909C15.0745 5.75241 15.2064 5.77194 15.3308 5.81655C15.4551 5.86116 15.5694 5.92997 15.667 6.01899Z" fill="white"/>
</svg>
